<!DOCTYPE svg PUBLIC "-//W3C//DTD SVG 20010904//EN" "http://www.w3.org/TR/2001/REC-SVG-20010904/DTD/svg10.dtd">
<svg version="1.0" xmlns="http://www.w3.org/2000/svg" width="778px" height="480px" viewBox="0 0 7780 4800" preserveAspectRatio="xMidYMid meet">
<g id="layer1" fill="#efad1a" stroke="none">
 <path d="M3177 2963 c-36 -58 -145 -248 -158 -276 -10 -21 10 -59 200 -387 116 -200 209 -365 206 -369 -3 -3 -193 -7 -423 -9 -255 -3 -422 -8 -429 -14 -22 -18 -184 -308 -178 -318 7 -12 1621 -14 1628 -2 6 9 -797 1405 -811 1410 -6 2 -22 -14 -35 -35z"/>
 </g>
<g id="layer2" fill="#e86e19" stroke="none">
 <path d="M4960 1480 c-559 -4 -744 -8 -743 -17 6 -30 803 -1398 814 -1398 12 0 198 307 199 327 0 4 -95 170 -210 369 -116 199 -208 365 -204 368 3 3 194 8 424 9 376 3 420 5 432 20 34 40 179 306 174 318 -4 10 -23 13 -73 12 -37 -2 -403 -5 -813 -8z"/>
 </g>
<g id="layer3" fill="#7bc631" stroke="none">
 <path d="M4951 2878 c-39 -68 -221 -384 -405 -703 -183 -319 -331 -583 -329 -587 7 -13 1621 -10 1628 2 4 6 -36 84 -87 173 l-94 162 -427 0 c-235 0 -427 2 -427 3 0 2 95 172 210 377 l211 372 -87 149 c-91 158 -102 174 -115 174 -4 0 -40 -55 -78 -122z"/>
 </g>
<g id="layer4" fill="#6a2071" stroke="none">
 <path d="M5821 4516 c-13 -13 -18 -26 -13 -30 5 -3 19 5 31 18 13 13 18 26 13 30 -5 3 -19 -5 -31 -18z"/>
 <path d="M4097 1389 c-33 -52 -797 -1378 -797 -1384 0 -3 90 -4 201 -3 l200 3 208 362 208 362 214 -364 214 -365 198 0 c109 0 196 3 194 7 -84 152 -795 1374 -807 1387 -18 18 -18 18 -33 -5z"/>
 </g>
<g id="layer5" fill="#6bb1d3" stroke="none">
 <path d="M3245 4773 c6 -18 738 -1285 782 -1355 13 -21 27 -38 32 -38 6 0 733 1246 818 1403 2 4 -87 7 -199 7 l-203 -1 -200 -351 c-110 -193 -204 -357 -210 -364 -7 -10 -65 81 -224 351 l-214 365 -194 0 c-182 0 -195 -1 -188 -17z"/>
 </g>
<g id="layer6" fill="#e3372b" stroke="none">
 <path d="M2395 1479 c-6 -9 84 -176 162 -301 l23 -38 425 0 c234 0 425 -2 425 -4 0 -2 -94 -171 -210 -375 l-209 -371 90 -157 c50 -87 94 -162 98 -166 5 -4 14 0 22 9 29 35 807 1398 803 1406 -8 13 -1622 10 -1629 -3z"/>
 <path d="M5675 1481 c-7 -12 12 -24 25 -16 11 7 4 25 -10 25 -5 0 -11 -4 -15 -9z"/>
 </g>
<g id="layer7" fill="#656263" stroke="none">
 <path d="M5212 4253 l3 -538 445 -3 c502 -3 523 0 578 63 17 19 36 51 41 72 14 50 14 357 0 408 -6 22 -28 56 -48 76 -41 42 -102 59 -207 59 l-65 0 216 198 217 197 -149 3 -148 3 -195 -200 -195 -201 -132 0 -133 0 0 200 0 200 -115 0 -115 0 2 -537z m828 -61 c19 -15 24 -31 28 -94 6 -92 -4 -162 -24 -183 -13 -13 -60 -15 -310 -15 l-294 0 0 155 0 155 289 0 c264 0 291 -2 311 -18z"/>
 <path d="M7060 4345 l0 -445 -242 -2 -243 -3 0 -90 0 -90 593 -3 592 -2 0 95 0 95 -240 0 -240 0 0 445 0 445 -110 0 -110 0 0 -445z"/>
 <path d="M75 4757 c-54 -30 -74 -88 -75 -220 l0 -98 93 3 92 3 3 78 3 77 374 0 375 0 0 -135 0 -135 -367 0 c-238 0 -382 -4 -408 -11 -51 -14 -110 -73 -124 -124 -17 -61 -14 -301 4 -362 20 -67 66 -108 139 -123 37 -7 176 -10 428 -8 l374 3 49 25 c72 37 98 92 99 208 l1 87 -100 0 -100 0 -3 -67 -3 -68 -349 0 -350 0 0 119 0 119 378 5 c418 4 431 6 486 68 44 48 56 106 56 264 0 147 -13 215 -48 257 -49 58 -50 58 -539 58 -446 0 -448 0 -488 -23z"/>
 <path d="M1572 4243 l3 -538 90 -3 90 -3 254 340 254 340 67 -97 c37 -53 141 -205 232 -337 l165 -240 99 0 99 0 3 538 2 537 -105 0 -105 0 0 -377 c-1 -302 -3 -374 -13 -357 -7 11 -104 148 -217 303 -196 271 -205 282 -234 279 -27 -3 -53 -32 -224 -258 -107 -140 -212 -282 -233 -314 l-39 -59 0 391 0 392 -95 0 -95 0 2 -537z"/>
 </g>

</svg>